<?xml version="1.0" encoding="UTF-8" standalone="no"?><!DOCTYPE svg PUBLIC "-//W3C//DTD SVG 1.1//EN" "http://www.w3.org/Graphics/SVG/1.1/DTD/svg11.dtd"><svg width="100%" height="100%" viewBox="0 0 617 105" version="1.1" xmlns="http://www.w3.org/2000/svg" xmlns:xlink="http://www.w3.org/1999/xlink" xml:space="preserve" xmlns:serif="http://www.serif.com/" style="fill-rule:evenodd;clip-rule:evenodd;stroke-linejoin:round;stroke-miterlimit:2;"><g><path d="M154.167,26.246l21.779,-0c3.108,-0 5.975,0.646 8.592,1.942c2.62,1.295 4.679,3.062 6.183,5.291c1.504,2.229 2.258,4.667 2.258,7.309c0,2.8 -0.687,5.225 -2.062,7.275c-1.375,2.045 -3.175,3.616 -5.404,4.704l-0,0.625c2.904,1.033 5.208,2.679 6.92,4.937c1.709,2.254 2.567,4.963 2.567,8.125c0,3.063 -0.817,5.771 -2.45,8.129c-1.664,2.386 -3.952,4.27 -6.612,5.446c-2.771,1.271 -5.846,1.904 -9.217,1.904l-22.554,0l-0,-55.687Zm21,22.708c2.283,0 4.108,-0.633 5.483,-1.904c1.375,-1.271 2.063,-2.867 2.063,-4.783c-0,-1.867 -0.663,-3.434 -1.984,-4.709c-1.325,-1.266 -3.075,-1.904 -5.25,-1.904l-10.812,0l-0,13.3l10.5,0Zm1.166,23.413c2.542,-0 4.525,-0.663 5.95,-1.984c1.425,-1.32 2.138,-3.045 2.138,-5.17c-0,-2.125 -0.725,-3.863 -2.175,-5.213c-1.454,-1.35 -3.529,-2.021 -6.225,-2.021l-11.354,0l-0,14.388l11.666,-0Zm53.863,10.812c-5.446,0 -10.383,-1.283 -14.817,-3.85c-4.373,-2.506 -7.989,-6.149 -10.462,-10.541c-2.542,-4.459 -3.813,-9.359 -3.813,-14.7c0,-5.338 1.271,-10.238 3.813,-14.7c2.472,-4.391 6.086,-8.032 10.458,-10.538c4.442,-2.567 9.375,-3.85 14.825,-3.85c5.442,0 10.383,1.283 14.817,3.85c4.372,2.507 7.986,6.15 10.458,10.542c2.542,4.458 3.813,9.358 3.813,14.696c-0,5.341 -1.271,10.241 -3.813,14.7c-2.472,4.391 -6.086,8.034 -10.458,10.541c-4.434,2.567 -9.375,3.85 -14.817,3.85l-0.004,0Zm-0,-9.958c3.292,0.033 6.537,-0.797 9.408,-2.408c2.83,-1.585 5.161,-3.929 6.729,-6.767c1.634,-2.904 2.45,-6.225 2.45,-9.958c0,-3.734 -0.816,-7.05 -2.45,-9.955c-1.568,-2.838 -3.899,-5.182 -6.729,-6.766c-2.871,-1.613 -6.115,-2.445 -9.408,-2.413c-3.283,-0.036 -6.518,0.796 -9.375,2.413c-2.812,1.593 -5.127,3.936 -6.688,6.766c-1.633,2.905 -2.45,6.221 -2.45,9.959c0,3.729 0.817,7.05 2.45,9.954c1.561,2.83 3.876,5.173 6.688,6.767c2.858,1.614 6.092,2.445 9.375,2.408Zm63.971,9.958c-5.446,0 -10.384,-1.283 -14.817,-3.85c-4.372,-2.507 -7.986,-6.15 -10.458,-10.541c-2.542,-4.459 -3.813,-9.359 -3.813,-14.7c0,-5.338 1.271,-10.238 3.809,-14.7c2.473,-4.391 6.089,-8.033 10.462,-10.538c4.433,-2.567 9.375,-3.85 14.817,-3.85c5.446,0 10.383,1.283 14.816,3.85c4.372,2.507 7.987,6.15 10.459,10.542c2.541,4.458 3.812,9.358 3.812,14.696c0,5.341 -1.271,10.241 -3.808,14.7c-2.473,4.392 -6.089,8.035 -10.463,10.541c-4.433,2.567 -9.375,3.85 -14.816,3.85Zm-0,-9.958c3.294,0.034 6.54,-0.796 9.412,-2.408c2.828,-1.586 5.158,-3.93 6.725,-6.767c1.634,-2.904 2.45,-6.225 2.45,-9.958c0,-3.734 -0.816,-7.05 -2.45,-9.955c-1.567,-2.837 -3.897,-5.181 -6.725,-6.766c-2.872,-1.614 -6.118,-2.446 -9.412,-2.413c-3.283,-0.036 -6.518,0.796 -9.375,2.413c-2.812,1.593 -5.127,3.936 -6.688,6.766c-1.633,2.905 -2.45,6.221 -2.45,9.959c0,3.729 0.817,7.05 2.45,9.954c1.562,2.831 3.879,5.173 6.692,6.767c2.857,1.614 6.09,2.445 9.371,2.408Zm38.458,-46.971l10.5,0l0,23.875l0.625,0l20.375,-23.875l12.679,0l0,0.621l-20.137,23.017l22.241,31.425l0,0.62l-12.833,0l-16.642,-23.72l-6.3,7.387l0,16.333l-10.5,0l0,-55.687l-0.008,0.004Zm58.117,-1.25l13.537,0l14.775,39.125l0.625,0l14.771,-39.125l13.613,0l-0,55.688l-10.421,-0l-0,-27.455l0.625,-9.254l-0.625,0l-14.159,36.709l-8.166,-0l-14.234,-36.709l-0.62,0l0.625,9.254l-0,27.459l-10.346,-0l-0,-55.692Zm86.671,0l12.058,0l20.921,55.688l-11.588,-0l-4.666,-13.3l-21.313,-0l-4.667,13.3l-11.587,-0l20.842,-55.688Zm13.304,32.746l-4.9,-14l-2.025,-6.692l-0.621,0l-2.021,6.692l-4.979,14l14.546,-0Zm28.254,-32.746l20.3,0c3.629,0 6.858,0.75 9.683,2.254c2.825,1.504 5.017,3.592 6.571,6.263c1.558,2.666 2.333,5.691 2.333,9.062c0,3.575 -1.125,6.75 -3.383,9.525c-2.229,2.756 -5.177,4.843 -8.517,6.029l-0.075,0.542l14.934,21.392l-0,0.625l-12.059,-0l-14.387,-20.925l-4.9,-0l-0,20.921l-10.5,-0l-0,-55.688Zm20.221,25.125c2.387,0 4.333,-0.729 5.833,-2.179c1.504,-1.454 2.258,-3.292 2.258,-5.525c0,-2.125 -0.716,-3.938 -2.141,-5.442c-1.425,-1.504 -3.359,-2.258 -5.792,-2.258l-9.879,-0l-0,15.4l9.721,-0l-0,0.004Zm30.125,-25.125l10.5,0l-0,23.875l0.625,0l20.375,-23.875l12.679,0l-0,0.625l-20.146,23.021l22.25,31.421l0,0.625l-12.833,-0l-16.65,-23.725l-6.3,7.387l-0,16.334l-10.5,-0l-0,-55.688Z" style="fill:#fff;fill-rule:nonzero;"/><g><circle cx="52.083" cy="52.083" r="52.083" style="fill:#5267df;"/><path d="M37.5,37.5l0,41.667l14.75,-14.334l14.742,14.334l-0,-41.667c-0,-4.572 -3.762,-8.333 -8.334,-8.333l-12.825,-0c-4.571,-0 -8.333,3.761 -8.333,8.333Z" style="fill:#fff;"/></g></g></svg>